<svg width="1283" height="613" viewBox="0 0 1283 613" fill="none" xmlns="http://www.w3.org/2000/svg">
<path fill-rule="evenodd" clip-rule="evenodd" d="M277.329 0.471545C228.435 2.47055 157.264 11.1925 107.329 21.3065C83.5301 26.1265 80.6631 27.0946 76.1451 31.8386C66.6131 41.8456 39.4901 92.1575 25.7651 125.294C14.2701 153.043 5.9961 181.114 2.3311 204.794C0.069097 219.414 -0.727905 252.294 0.752095 269.94C2.27009 288.033 7.3161 319.763 12.0191 340.794C15.3271 355.584 23.1461 386.31 29.1971 408.294C41.1351 451.665 44.6981 464.782 47.8041 476.794C49.5821 483.669 51.8481 492.219 52.8411 495.794C54.4751 501.68 60.5551 524.962 67.3341 551.294C68.7501 556.794 72.0931 570.53 74.7611 581.819C80.7621 607.2 81.6291 609.393 86.4461 611.406C89.8151 612.814 90.5261 612.799 94.6361 611.229C100.096 609.144 106.056 603.944 108.226 599.369C110.652 594.258 110.312 581.943 107.435 570.672C106.118 565.514 98.9671 541.269 91.5431 516.794C33.7041 326.096 23.7151 282.001 31.6291 252.294C37.9291 228.646 49.0861 204.137 77.8341 150.794C93.1611 122.353 97.3081 115.385 100.696 112.377C103.68 109.728 108.281 109.941 111.472 112.877C116.889 117.86 118.595 123.693 128.857 172.294C146.96 258.037 158.025 292.619 174.867 316.1C191.418 339.176 211.976 350.789 250.329 358.73C277.802 364.418 305.172 366.279 349.558 365.477C367.582 365.151 383.904 364.652 385.829 364.368C387.754 364.083 393.604 363.377 398.829 362.799C436.759 358.598 465.458 349.471 487.829 334.494C497.532 327.997 516.93 308.517 523.875 298.294C536.779 279.298 546.828 261.267 557.315 238.294C566.738 217.651 579.167 185.117 578.397 183.11C578.097 182.329 578.254 181.939 578.746 182.243C579.752 182.865 579.699 183.009 591.767 147.274C596.599 132.963 601.534 119.332 602.733 116.983C614.275 94.3575 654.206 89.8655 673.898 108.977C678.853 113.786 682.649 121.387 687.289 135.794C727.292 260.007 762.146 319.391 808.781 342.789C826.946 351.903 858.963 360.213 887.329 363.176C917.425 366.32 976.809 366.383 1004.83 363.3C1055.66 357.709 1086.86 343.813 1105.89 318.294C1123.78 294.302 1132.8 265.725 1153.35 167.877C1162.61 123.775 1163.83 119.555 1168.76 114.63C1175.3 108.088 1180.19 108.664 1185.19 116.568C1194.53 131.33 1232.95 206.058 1240.31 223.794C1248.45 243.377 1252.83 260.753 1252.83 273.432C1252.83 289.085 1244.91 327.143 1230.18 382.294C1221.83 413.584 1195.48 503.4 1182.81 543.794C1174.3 570.937 1172.54 578.468 1172.52 587.922C1172.5 595.506 1172.82 597.105 1175.19 601.145C1177.95 605.863 1183.72 610.04 1189.91 611.815C1193.76 612.921 1197.24 611.536 1199.99 607.794C1201.07 606.321 1205.75 589.486 1211.37 566.794C1216.62 545.619 1221.95 524.694 1223.22 520.294C1224.49 515.894 1226.47 508.694 1227.63 504.294C1230.29 494.138 1238.33 464.47 1240.9 455.294C1243.37 446.476 1255.03 403.782 1257.69 393.794C1262.06 377.431 1268.17 353.078 1268.87 349.294C1269.27 347.094 1270.78 339.894 1272.23 333.294C1282.2 287.825 1284.85 239.261 1279.31 203.765C1272.48 160.049 1249.83 104.088 1215.98 47.3355C1208.42 34.6505 1203.88 29.2585 1199.07 27.2485C1190.95 23.8555 1147.31 15.5175 1110.62 10.3505C1080.28 6.07654 1072.43 5.25555 1028.33 1.74355C1002.22 -0.335451 946.948 -0.601474 918.329 1.21453C889.896 3.01853 889.532 3.05153 866.329 5.88353C833.586 9.87953 813.711 13.7656 761.71 26.3386C726.897 34.7556 719.513 36.3945 712.271 37.3105C709.553 37.6545 706.204 38.1325 704.829 38.3735C681.697 42.4215 633.838 43.8685 605.329 41.3825C578.773 39.0655 562.323 36.0785 522.829 26.4005C452.723 9.22053 419.811 4.08153 358.829 0.792529C342.283 -0.0994709 295.788 -0.283455 277.329 0.471545ZM392.276 24.2475C435.919 28.2295 469.675 34.3615 501.829 44.1505C552.493 59.5735 567.162 74.2005 567.162 109.294C567.161 127.88 562.354 150.179 549.808 189.786C532.749 243.639 513.884 278.827 488.384 304.358C459.365 333.412 408.738 346.066 327.829 344.486C259.404 343.151 222.291 333.89 200.815 312.794C185.058 297.316 173.384 269.236 162.981 221.794C150.149 163.274 144.867 107.804 149.84 83.7935C152.763 69.6825 159.853 57.4835 169.101 50.6505C187.286 37.2155 229.968 27.3425 287.329 23.3025C312.334 21.5415 368.128 22.0435 392.276 24.2475ZM1005.33 23.7475C1053.22 28.1185 1086.5 35.1995 1105.12 44.9825C1112.47 48.8425 1121.27 57.4055 1125.01 64.3365C1134.26 81.4865 1135.31 114.483 1128.21 165.294C1121.91 210.471 1115.61 239.766 1106.18 267.786C1089.33 317.851 1066.32 333.977 1000.33 341.948C985.126 343.785 976.734 344.136 946.329 344.208C907.365 344.301 893.667 343.387 870.329 339.139C833.954 332.518 810.581 321.74 791.853 302.953C769.642 280.671 753.39 251.367 737.352 204.683C724.504 167.284 716.885 138.208 714.69 118.196C713.585 108.119 713.628 105.346 715.021 97.1595C717.155 84.6135 720.555 77.8855 728.96 69.5735C734.602 63.9935 737.84 61.8425 748.042 56.8965C783.782 39.5685 847.147 26.6055 914.785 22.7835C933.468 21.7275 989.765 22.3275 1005.33 23.7475ZM118.558 53.3975C118.226 53.7295 117.363 53.7656 116.642 53.4766C115.844 53.1576 116.081 52.9205 117.246 52.8725C118.3 52.8295 118.89 53.0655 118.558 53.3975ZM1167.1 53.4495C1166.42 53.7235 1165.07 53.7405 1164.1 53.4865C1163.13 53.2325 1163.68 53.0085 1165.33 52.9885C1166.98 52.9685 1167.78 53.1755 1167.1 53.4495ZM124.829 56.8185C124.829 57.9635 119.128 58.8035 115.829 58.1435C110.678 57.1135 112.546 55.7245 118.829 55.9125C122.129 56.0115 124.829 56.4195 124.829 56.8185ZM1168.83 56.7105C1168.83 58.0895 1167.4 58.3276 1161.34 57.9506C1158.31 57.7626 1156.08 57.1996 1156.39 56.7006C1157.12 55.5106 1168.83 55.5195 1168.83 56.7105ZM94.4231 66.2225C92.9961 68.6585 91.6761 72.0355 91.4911 73.7265C91.3061 75.4175 90.7941 77.1375 90.3531 77.5475C88.5481 79.2265 91.0521 69.3995 93.3621 65.7415C96.7721 60.3395 97.6411 60.7325 94.4231 66.2225ZM1189.66 69.8885C1189.14 70.2155 1188.99 71.7905 1189.33 73.3885C1189.85 75.7955 1189.76 75.9905 1188.83 74.5255C1188.22 73.5535 1187.85 71.7535 1188.02 70.5255C1188.22 69.0525 1187.86 68.3925 1186.96 68.5845C1186.11 68.7645 1185.8 68.3145 1186.15 67.4075C1186.46 66.6005 1186.06 65.4015 1185.27 64.7445C1184.48 64.0865 1183.83 63.0785 1183.83 62.5045C1183.83 61.9305 1185.36 63.2225 1187.22 65.3765C1189.09 67.5315 1190.19 69.5615 1189.66 69.8885ZM99.3541 67.9505C98.4271 69.8625 98.2881 70.6455 99.0311 69.7795C102.907 65.2595 105.961 64.5005 119.496 64.6925L126.664 64.7935L128.177 69.0435C130.359 75.1715 131.007 78.7935 129.921 78.7935C129.401 78.7935 128.77 78.0055 128.518 77.0435C128.267 76.0815 128.009 78.6315 127.945 82.7105C127.816 90.9545 128.511 91.4745 129.856 84.1415L130.745 79.2935L130.43 84.5785C129.952 92.6185 129.553 92.7525 104.829 93.1675L97.3291 93.2935L95.6691 89.7935C93.2741 84.7455 92.6921 70.6805 94.7721 68.1125C96.4161 66.0825 100.066 63.6975 100.644 64.2755C100.827 64.4585 100.247 66.1115 99.3541 67.9505ZM1183.77 67.0435C1186.58 70.1825 1186.67 70.6025 1186.42 79.2935C1186.28 84.2435 1185.58 89.4895 1184.88 90.9505L1183.59 93.6085L1169.29 93.4245C1151.3 93.1935 1150.76 92.8695 1150.89 82.3755C1150.99 73.5165 1153.27 65.9635 1156.18 64.7865C1157.36 64.3095 1163.4 63.8915 1169.59 63.8565L1180.86 63.7935L1183.77 67.0435ZM104.079 67.9105C102.272 69.7655 102.54 70.7935 104.829 70.7935C105.929 70.7935 106.858 71.3565 106.892 72.0435C106.927 72.7315 107.367 72.2705 107.869 71.0195C108.735 68.8625 109.196 68.7685 116.774 69.1905C121.169 69.4355 125.229 69.9225 125.797 70.2735C126.984 71.0075 127.15 69.7715 126.064 68.2935C124.896 66.7045 105.582 66.3675 104.079 67.9105ZM1156.47 68.0185C1156.73 68.4445 1157.96 68.7935 1159.19 68.7935C1160.42 68.7935 1161.99 69.3525 1162.67 70.0355C1163.66 71.0235 1164.07 71.0235 1164.68 70.0355C1165.87 68.1135 1176.55 68.6295 1177.33 70.6455C1177.85 72.0035 1178.07 72.0255 1178.83 70.7995C1180.82 67.5655 1177.94 66.6485 1166.73 66.9525C1160.82 67.1125 1156.21 67.5925 1156.47 68.0185ZM109.518 71.5435C109.282 71.9565 109.002 76.0055 108.895 80.5435L108.702 88.7935H112.765H116.829V79.7935V70.7935H113.388C111.495 70.7935 109.754 71.1305 109.518 71.5435ZM1165.04 79.4845L1165.33 88.2935L1169.05 88.6015C1173.52 88.9735 1174.09 87.6155 1173.63 77.7625L1173.33 71.2935L1169.04 70.9845L1164.75 70.6745L1165.04 79.4845ZM1153.17 79.2935C1153.18 83.6935 1153.35 85.3695 1153.56 83.0175C1153.77 80.6655 1153.77 77.0655 1153.56 75.0175C1153.34 72.9695 1153.17 74.8935 1153.17 79.2935ZM106.539 79.7935C106.252 80.8935 106.424 81.7935 106.923 81.7935C107.421 81.7935 107.829 80.8935 107.829 79.7935C107.829 78.6935 107.656 77.7935 107.446 77.7935C107.235 77.7935 106.827 78.6935 106.539 79.7935ZM1175.1 82.7935C1175.1 85.2685 1175.3 86.2815 1175.54 85.0435C1175.77 83.8055 1175.77 81.7815 1175.54 80.5435C1175.3 79.3055 1175.1 80.3185 1175.1 82.7935ZM95.8291 82.7345C95.8291 83.8025 96.2791 84.9535 96.8291 85.2935C97.3961 85.6445 97.8291 84.8035 97.8291 83.3525C97.8291 81.9455 97.3791 80.7935 96.8291 80.7935C96.2791 80.7935 95.8291 81.6665 95.8291 82.7345ZM1183.91 85.3765C1183.96 86.5415 1184.19 86.7785 1184.51 85.9815C1184.8 85.2595 1184.77 84.3965 1184.43 84.0645C1184.1 83.7325 1183.87 84.3225 1183.91 85.3765ZM1253.49 216.044C1253.21 216.732 1252.99 216.169 1252.99 214.794C1252.99 213.419 1253.21 212.857 1253.49 213.544C1253.77 214.232 1253.77 215.357 1253.49 216.044ZM1254.52 226.525C1254.27 227.498 1254.04 226.944 1254.02 225.294C1254 223.644 1254.21 222.848 1254.49 223.525C1254.76 224.202 1254.78 225.552 1254.52 226.525ZM1255.52 242.525C1255.27 243.498 1255.04 242.944 1255.02 241.294C1255 239.644 1255.21 238.848 1255.49 239.525C1255.76 240.202 1255.78 241.552 1255.52 242.525ZM1251.51 251.982C1251.19 252.779 1250.96 252.542 1250.91 251.377C1250.87 250.323 1251.1 249.733 1251.43 250.065C1251.77 250.397 1251.8 251.26 1251.51 251.982ZM1252.51 255.982C1252.19 256.779 1251.96 256.542 1251.91 255.377C1251.87 254.323 1252.1 253.733 1252.43 254.065C1252.77 254.397 1252.8 255.26 1252.51 255.982ZM1254.73 267.211C1254.88 272.921 1254.2 271.242 1253.55 264.294C1253.2 260.567 1253.3 259.241 1253.81 260.794C1254.26 262.169 1254.67 265.057 1254.73 267.211ZM27.5121 265.982C27.1931 266.779 26.9561 266.542 26.9081 265.377C26.8651 264.323 27.1011 263.733 27.4331 264.065C27.7651 264.397 27.8011 265.26 27.5121 265.982ZM803.059 315.251C810.43 320.849 828.087 329.806 838.329 333.144C866.565 342.345 897.738 346.191 944.329 346.22C983.676 346.244 1015.9 343.076 1039.79 336.834C1048.06 334.673 1050.81 334.863 1043.24 337.072C1037.94 338.617 1036.07 340.756 1040.54 340.159C1043.13 339.813 1043.08 339.903 1039.83 341.415C1037.9 342.311 1033.94 343.086 1031.03 343.137C1027.82 343.194 1026.44 343.512 1027.53 343.942C1029.08 344.553 1029.01 344.663 1027.08 344.724C1025.65 344.768 1024.83 344.208 1024.83 343.187C1024.83 342.132 1024.29 341.789 1023.25 342.187C1022.38 342.521 1021.14 342.81 1020.5 342.829C1019.86 342.849 1020.45 343.508 1021.83 344.294C1023.2 345.08 1023.87 345.739 1023.3 345.759C1022.74 345.778 1015.99 346.66 1008.3 347.719C983.587 351.123 963.396 352.133 933.353 351.467C917.94 351.125 900.604 350.378 894.829 349.807C868.036 347.158 843.418 341.086 826.257 332.895C815.941 327.971 804.321 320.794 806.664 320.794C808.236 320.794 807.206 319.702 801.829 315.668C799.904 314.224 795.854 310.68 792.829 307.792L787.329 302.541L792.329 306.721C795.079 309.019 799.907 312.858 803.059 315.251ZM492.829 304.139C492.829 304.329 491.816 305.341 490.579 306.389L488.329 308.294L490.234 306.044C492.024 303.93 492.829 303.339 492.829 304.139ZM478.457 317.277C463.769 331.966 438.654 342.308 405.829 347.186C382.601 350.638 372.727 351.235 338.329 351.264C296.662 351.3 273.055 349.263 250.329 343.674C239.436 340.994 226.07 336.549 227.486 336.076C228.122 335.863 230.27 336.369 232.26 337.201C234.532 338.15 236.677 338.416 238.029 337.916C239.858 337.239 239.462 336.939 235.383 335.912C232.745 335.248 230.782 334.507 231.023 334.267C231.263 334.026 234.581 334.727 238.395 335.824C267.011 344.056 315.49 348.156 358.508 345.982C371.61 345.32 383.454 344.596 384.829 344.372C386.204 344.148 390.479 343.662 394.329 343.293C412.629 341.536 439.204 335.379 452.548 329.804C461.969 325.867 475.855 317.939 481.329 313.37C486.092 309.394 485.405 310.329 478.457 317.277ZM816.151 326.449C816.995 327.293 824.829 330.809 824.829 330.344C824.829 329.713 817.746 325.794 816.605 325.794C815.995 325.794 815.79 326.089 816.151 326.449ZM245.329 339.84C248.079 340.914 250.771 341.645 251.31 341.466C252.362 341.116 243.194 337.763 241.401 337.841C240.811 337.867 242.579 338.766 245.329 339.84Z" fill="black"/>
</svg>
