<svg xmlns="http://www.w3.org/2000/svg" xmlns:xlink="http://www.w3.org/1999/xlink" xmlns:inkscape="http://www.inkscape.org/namespaces/inkscape" version="1.1" width="841.89" height="1360.63" viewBox="0 0 841.89 1360.63">
<defs>
<clipPath id="clip_0">
<path transform="matrix(.24,0,0,-.24,0,1360.63)" d="M0 232.695H3236.28V2511.105H0Z"/>
</clipPath>
<clipPath id="clip_1">
<path transform="matrix(.24,0,0,-.24,0,1360.63)" d="M0 2542.47H3236.28V4685.38H0Z"/>
</clipPath>
<clipPath id="clip_2">
<path transform="matrix(.24,0,0,-.24,0,1360.63)" d="M0 4595.63H3236.28V5669H0Z"/>
</clipPath>
</defs>
<g clip-path="url(#clip_0)">
<path transform="matrix(.24,0,0,-.24,0,1360.63)" d="M720.363 2294.74V2156.94H747.922V2212.07H830.594V2156.94H858.148V2294.74H830.594V2239.62H747.922V2294.74H720.363"/>
<path transform="matrix(.24,0,0,-.24,0,1360.63)" d="M2787.2 2198.28C2787.2 2221.12 2768.7 2239.62 2745.86 2239.62 2723.04 2239.62 2704.52 2221.12 2704.52 2198.28 2704.52 2175.45 2723.04 2156.94 2745.86 2156.94 2768.7 2156.94 2787.2 2175.45 2787.2 2198.28"/>
<path transform="matrix(.24,0,0,-.24,0,1360.63)" d="M2649.41 2156.94V2294.74H2787.2V2267.17H2676.96V2239.62H2745.86V2156.94H2649.41"/>
<path transform="matrix(.24,0,0,-.24,0,1360.63)" d="M2759.64 2198.28C2759.64 2205.89 2753.47 2212.06 2745.86 2212.06 2738.26 2212.06 2732.09 2205.89 2732.09 2198.28 2732.09 2190.67 2738.26 2184.5 2745.86 2184.5 2753.47 2184.5 2759.64 2190.67 2759.64 2198.28" fill="#ffffff"/>
<path transform="matrix(.24,0,0,-.24,0,1360.63)" d="M2676.96 2184.5H2745.8585V2212.0548H2676.96Z" fill="#ffffff"/>
<path transform="matrix(.24,0,0,-.24,0,1360.63)" d="M1106.17 2294.74V2156.94H1243.97V2294.74H1216.4V2184.5H1188.85V2294.74H1161.29V2184.5H1133.73V2294.74H1106.17"/>
<path transform="matrix(.24,0,0,-.24,0,1360.63)" d="M1588.44 2198.28C1588.44 2221.12 1569.93 2239.62 1547.1 2239.62 1524.27 2239.62 1505.76 2221.12 1505.76 2198.28 1505.76 2175.45 1524.27 2156.94 1547.1 2156.94 1569.93 2156.94 1588.44 2175.45 1588.44 2198.28"/>
<path transform="matrix(.24,0,0,-.24,0,1360.63)" d="M1602.22 2156.94H1629.7825V2294.741H1602.22Z"/>
<path transform="matrix(.24,0,0,-.24,0,1360.63)" d="M1491.99 2294.74V2156.94H1547.1V2239.62H1519.54V2294.74H1491.99"/>
<path transform="matrix(.24,0,0,-.24,0,1360.63)" d="M1560.88 2198.28C1560.88 2205.89 1554.71 2212.07 1547.1 2212.07 1539.49 2212.07 1533.33 2205.89 1533.33 2198.28 1533.33 2190.67 1539.49 2184.5 1547.1 2184.5 1554.71 2184.5 1560.88 2190.67 1560.88 2198.28" fill="#ffffff"/>
<path transform="matrix(.24,0,0,-.24,0,1360.63)" d="M1519.54 2184.5H1547.0986V2212.0626H1519.54Z" fill="#ffffff"/>
<path transform="matrix(.24,0,0,-.24,0,1360.63)" d="M2263.59 2294.74V2156.94H2291.16V2212.07H2346.27V2239.62H2291.16V2294.74H2263.59"/>
<path transform="matrix(.24,0,0,-.24,0,1360.63)" d="M2339.38 2212.07C2346.27 2212.07 2360.05 2205.17 2366.94 2191.39 2373.83 2177.61 2373.83 2156.94 2373.83 2156.94H2401.39C2401.39 2156.94 2401.39 2184.5 2394.5 2198.28 2387.61 2212.07 2373.83 2225.84 2373.83 2225.84 2373.83 2225.84 2387.61 2239.62 2394.5 2253.39 2401.39 2267.18 2401.39 2294.74 2401.39 2294.74H2373.83C2373.83 2294.74 2373.83 2274.07 2366.94 2260.29 2360.05 2246.51 2339.38 2239.62 2339.38 2239.62V2212.07"/>
<path transform="matrix(.24,0,0,-.24,0,1360.63)" d="M720.363 1920.74V1802.62H838.465V1920.74H814.84V1826.25H791.227V1920.74H767.602V1826.25H743.977V1920.74H720.363"/>
<path transform="matrix(.24,0,0,-.24,0,1360.63)" d="M2751.77 1838.06C2751.77 1857.63 2735.91 1873.49 2716.34 1873.49 2696.77 1873.49 2680.91 1857.63 2680.91 1838.06 2680.91 1818.5 2696.77 1802.62 2716.34 1802.62 2735.91 1802.62 2751.77 1818.5 2751.77 1838.06"/>
<path transform="matrix(.24,0,0,-.24,0,1360.63)" d="M2763.58 1802.63H2787.205V1920.743H2763.58Z"/>
<path transform="matrix(.24,0,0,-.24,0,1360.63)" d="M2669.1 1920.74V1802.62H2716.34V1873.49H2692.71V1920.74H2669.1"/>
<path transform="matrix(.24,0,0,-.24,0,1360.63)" d="M2728.15 1838.06C2728.15 1844.58 2722.86 1849.87 2716.34 1849.87 2709.82 1849.87 2704.53 1844.58 2704.53 1838.06 2704.53 1831.54 2709.82 1826.25 2716.34 1826.25 2722.86 1826.25 2728.15 1831.54 2728.15 1838.06" fill="#ffffff"/>
<path transform="matrix(.24,0,0,-.24,0,1360.63)" d="M2692.71 1826.25H2716.335V1849.875H2692.71Z" fill="#ffffff"/>
<path transform="matrix(.24,0,0,-.24,0,1360.63)" d="M1499.86 1920.74V1802.62H1523.47V1849.87H1594.34V1802.62H1617.96V1920.74H1594.34V1873.49H1523.47V1920.74H1499.86"/>
<path transform="matrix(.24,0,0,-.24,0,1360.63)" d="M2007.71 1838.06C2007.71 1857.63 1991.85 1873.49 1972.27 1873.49 1952.7 1873.49 1936.84 1857.63 1936.84 1838.06 1936.84 1818.5 1952.7 1802.62 1972.27 1802.62 1991.85 1802.62 2007.71 1818.5 2007.71 1838.06"/>
<path transform="matrix(.24,0,0,-.24,0,1360.63)" d="M1889.6 1802.62V1920.74H2007.71V1897.12H1913.22V1873.49H1972.27V1802.62H1889.6"/>
<path transform="matrix(.24,0,0,-.24,0,1360.63)" d="M1984.08 1838.06C1984.08 1844.58 1978.79 1849.87 1972.27 1849.87 1965.75 1849.87 1960.46 1844.58 1960.46 1838.06 1960.46 1831.54 1965.75 1826.25 1972.27 1826.25 1978.79 1826.25 1984.08 1831.54 1984.08 1838.06" fill="#ffffff"/>
<path transform="matrix(.24,0,0,-.24,0,1360.63)" d="M1913.22 1826.25H1972.2708V1849.875H1913.22Z" fill="#ffffff"/>
<path transform="matrix(.24,0,0,-.24,0,1360.63)" d="M2279.36 1920.74V1802.62H2302.97V1849.87H2350.21V1873.49H2302.97V1920.74H2279.36"/>
<path transform="matrix(.24,0,0,-.24,0,1360.63)" d="M2344.3 1849.87C2350.21 1849.87 2362.02 1843.97 2367.93 1832.16 2373.83 1820.34 2373.83 1802.62 2373.83 1802.62H2397.45C2397.45 1802.62 2397.45 1826.25 2391.55 1838.06 2385.64 1849.87 2373.83 1861.68 2373.83 1861.68 2373.83 1861.68 2385.64 1873.49 2391.55 1885.3 2397.45 1897.12 2397.45 1920.74 2397.45 1920.74H2373.83C2373.83 1920.74 2373.83 1903.02 2367.93 1891.2 2362.02 1879.4 2344.3 1873.49 2344.3 1873.49V1849.87"/>
<path transform="matrix(.24,0,0,-.24,0,1360.63)" d="M720.363 1566.43V1463.08H741.023V1504.41H782.367V1525.09H741.023V1566.43H720.363"/>
<path transform="matrix(.24,0,0,-.24,0,1360.63)" d="M777.191 1504.41C782.367 1504.41 792.695 1499.25 797.867 1488.91 803.031 1478.58 803.031 1463.08 803.031 1463.08H823.703C823.703 1463.08 823.703 1483.74 818.535 1494.07 813.367 1504.41 803.031 1514.74 803.031 1514.74 803.031 1514.74 813.367 1525.09 818.535 1535.41 823.703 1545.75 823.703 1566.43 823.703 1566.43H803.031C803.031 1566.43 803.031 1550.92 797.867 1540.59 792.695 1530.25 777.191 1525.09 777.191 1525.09V1504.41"/>
<path transform="matrix(.24,0,0,-.24,0,1360.63)" d="M1047.61 1566.43V1463.08H1068.28V1504.41H1130.28V1463.08H1150.95V1566.43H1130.28V1525.09H1068.28V1566.43H1047.61"/>
<path transform="matrix(.24,0,0,-.24,0,1360.63)" d="M1374.87 1566.43V1463.08H1478.21V1566.43H1457.54V1483.74H1436.86V1566.43H1416.2V1483.74H1395.53V1566.43H1374.87"/>
<path transform="matrix(.24,0,0,-.24,0,1360.63)" d="M1702.11 1463.08V1566.43H1722.78L1753.78 1488.91 1784.78 1566.43H1805.45V1463.08H1784.78V1514.74L1764.12 1463.08H1743.45L1722.78 1514.74V1463.08H1702.11"/>
<path transform="matrix(.24,0,0,-.24,0,1360.63)" d="M2101.7 1494.07C2101.7 1511.2 2087.81 1525.09 2070.69 1525.09 2053.57 1525.09 2039.69 1511.2 2039.69 1494.07 2039.69 1476.96 2053.57 1463.08 2070.69 1463.08 2087.81 1463.08 2101.7 1476.96 2101.7 1494.07"/>
<path transform="matrix(.24,0,0,-.24,0,1360.63)" d="M2112.03 1463.08H2132.694V1566.424H2112.03Z"/>
<path transform="matrix(.24,0,0,-.24,0,1360.63)" d="M2029.36 1566.43V1463.08H2070.69V1525.09H2050.03V1566.43H2029.36"/>
<path transform="matrix(.24,0,0,-.24,0,1360.63)" d="M2081.03 1494.07C2081.03 1499.79 2076.4 1504.41 2070.69 1504.41 2064.98 1504.41 2060.36 1499.79 2060.36 1494.07 2060.36 1488.37 2064.98 1483.74 2070.69 1483.74 2076.4 1483.74 2081.03 1488.37 2081.03 1494.07" fill="#ffffff"/>
<path transform="matrix(.24,0,0,-.24,0,1360.63)" d="M2050.03 1483.74H2070.6903V1504.4158H2050.03Z" fill="#ffffff"/>
<path transform="matrix(.24,0,0,-.24,0,1360.63)" d="M2459.95 1494.07C2459.95 1511.2 2446.07 1525.09 2428.95 1525.09 2411.82 1525.09 2397.95 1511.2 2397.95 1494.07 2397.95 1476.96 2411.82 1463.08 2428.95 1463.08 2446.07 1463.08 2459.95 1476.96 2459.95 1494.07"/>
<path transform="matrix(.24,0,0,-.24,0,1360.63)" d="M2356.61 1463.08V1566.43H2459.95V1545.75H2377.28V1525.09H2428.95V1463.08H2356.61"/>
<path transform="matrix(.24,0,0,-.24,0,1360.63)" d="M2439.29 1494.07C2439.29 1499.79 2434.66 1504.41 2428.95 1504.41 2423.25 1504.41 2418.62 1499.79 2418.62 1494.07 2418.62 1488.37 2423.25 1483.74 2428.95 1483.74 2434.66 1483.74 2439.29 1488.37 2439.29 1494.07" fill="#ffffff"/>
<path transform="matrix(.24,0,0,-.24,0,1360.63)" d="M2377.28 1483.74H2428.9559V1504.4158H2377.28Z" fill="#ffffff"/>
<path transform="matrix(.24,0,0,-.24,0,1360.63)" d="M812.223 1162.56C812.223 1177.78 799.887 1190.13 784.668 1190.13 769.441 1190.13 757.105 1177.78 757.105 1162.56 757.105 1147.34 769.441 1135 784.668 1135 799.887 1135 812.223 1147.34 812.223 1162.56"/>
<path transform="matrix(.24,0,0,-.24,0,1360.63)" d="M720.363 1135V1226.87H812.223V1208.49H738.727V1190.13H784.668V1135H720.363"/>
<path transform="matrix(.24,0,0,-.24,0,1360.63)" d="M793.852 1162.56C793.852 1167.63 789.738 1171.75 784.668 1171.75 779.594 1171.75 775.477 1167.63 775.477 1162.56 775.477 1157.49 779.594 1153.38 784.668 1153.38 789.738 1153.38 793.852 1157.49 793.852 1162.56" fill="#ffffff"/>
<path transform="matrix(.24,0,0,-.24,0,1360.63)" d="M738.727 1153.38H784.6645V1171.755H738.727Z" fill="#ffffff"/>
<path transform="matrix(.24,0,0,-.24,0,1360.63)" d="M2695.34 1226.87V1135H2713.71V1171.75H2768.83V1135H2787.2V1226.87H2768.83V1190.13H2713.71V1226.87H2695.34"/>
<path transform="matrix(.24,0,0,-.24,0,1360.63)" d="M1049.52 1226.87V1135H1067.89V1171.75H1104.64V1190.13H1067.89V1226.87H1049.52"/>
<path transform="matrix(.24,0,0,-.24,0,1360.63)" d="M1100.04 1171.75C1104.64 1171.75 1113.82 1167.15 1118.42 1157.97 1123 1148.78 1123 1135 1123 1135H1141.38C1141.38 1135 1141.38 1153.38 1136.78 1162.56 1132.2 1171.75 1123 1180.93 1123 1180.93 1123 1180.93 1132.2 1190.13 1136.78 1199.3 1141.38 1208.49 1141.38 1226.87 1141.38 1226.87H1123C1123 1226.87 1123 1213.08 1118.42 1203.89 1113.82 1194.71 1100.04 1190.13 1100.04 1190.13V1171.75"/>
<path transform="matrix(.24,0,0,-.24,0,1360.63)" d="M1378.7 1226.87V1135H1470.55V1226.87H1452.18V1153.38H1433.81V1226.87H1415.44V1153.38H1397.06V1226.87H1378.7"/>
<path transform="matrix(.24,0,0,-.24,0,1360.63)" d="M1707.85 1135V1226.87H1726.22L1753.78 1157.97 1781.34 1226.87H1799.71V1135H1781.34V1180.93L1762.97 1135H1744.6L1726.22 1180.93V1135H1707.85"/>
<path transform="matrix(.24,0,0,-.24,0,1360.63)" d="M2430.48 1162.56C2430.48 1177.78 2418.14 1190.13 2402.92 1190.13 2387.7 1190.13 2375.36 1177.78 2375.36 1162.56 2375.36 1147.34 2387.7 1135 2402.92 1135 2418.14 1135 2430.48 1147.34 2430.48 1162.56"/>
<path transform="matrix(.24,0,0,-.24,0,1360.63)" d="M2439.68 1135.01H2458.047V1226.8733H2439.68Z"/>
<path transform="matrix(.24,0,0,-.24,0,1360.63)" d="M2366.18 1226.87V1135H2402.92V1190.13H2384.55V1226.87H2366.18"/>
<path transform="matrix(.24,0,0,-.24,0,1360.63)" d="M2412.11 1162.56C2412.11 1167.63 2408 1171.75 2402.92 1171.75 2397.85 1171.75 2393.73 1167.63 2393.73 1162.56 2393.73 1157.49 2397.85 1153.38 2402.92 1153.38 2408 1153.38 2412.11 1157.49 2412.11 1162.56" fill="#ffffff"/>
<path transform="matrix(.24,0,0,-.24,0,1360.63)" d="M2384.55 1153.38H2402.9212V1171.755H2384.55Z" fill="#ffffff"/>
<path transform="matrix(.24,0,0,-.24,0,1360.63)" d="M720.363 898.793V816.121H736.891V849.191H786.5V816.121H803.031V898.793H786.5V865.711H736.891V898.793H720.363"/>
<path transform="matrix(.24,0,0,-.24,0,1360.63)" d="M2787.2 840.926C2787.2 854.621 2776.1 865.711 2762.4 865.711 2748.7 865.711 2737.59 854.621 2737.59 840.926 2737.59 827.219 2748.7 816.121 2762.4 816.121 2776.1 816.121 2787.2 827.219 2787.2 840.926"/>
<path transform="matrix(.24,0,0,-.24,0,1360.63)" d="M2704.53 816.121V898.793H2787.2V882.258H2721.06V865.711H2762.4V816.121H2704.53"/>
<path transform="matrix(.24,0,0,-.24,0,1360.63)" d="M2770.66 840.926C2770.66 845.488 2766.96 849.191 2762.4 849.191 2757.84 849.191 2754.14 845.488 2754.14 840.926 2754.14 836.359 2757.84 832.656 2762.4 832.656 2766.96 832.656 2770.66 836.359 2770.66 840.926" fill="#ffffff"/>
<path transform="matrix(.24,0,0,-.24,0,1360.63)" d="M2721.06 832.656H2762.4V849.1912H2721.06Z" fill="#ffffff"/>
<path transform="matrix(.24,0,0,-.24,0,1360.63)" d="M1003.81 898.793V816.121H1020.34V849.191H1053.42V865.711H1020.34V898.793H1003.81"/>
<path transform="matrix(.24,0,0,-.24,0,1360.63)" d="M1049.28 849.191C1053.42 849.191 1061.68 845.059 1065.82 836.789 1069.95 828.523 1069.95 816.121 1069.95 816.121H1086.48C1086.48 816.121 1086.48 832.656 1082.36 840.926 1078.21 849.191 1069.95 857.453 1069.95 857.453 1069.95 857.453 1078.21 865.711 1082.36 873.988 1086.48 882.258 1086.48 898.793 1086.48 898.793H1069.95C1069.95 898.793 1069.95 886.383 1065.82 878.121 1061.68 869.855 1049.28 865.711 1049.28 865.711V849.191"/>
<path transform="matrix(.24,0,0,-.24,0,1360.63)" d="M1653.4 840.926C1653.4 854.621 1642.29 865.711 1628.59 865.711 1614.89 865.711 1603.79 854.621 1603.79 840.926 1603.79 827.219 1614.89 816.121 1628.59 816.121 1642.29 816.121 1653.4 827.219 1653.4 840.926"/>
<path transform="matrix(.24,0,0,-.24,0,1360.63)" d="M1570.71 816.121V898.793H1653.4V882.258H1587.24V865.711H1628.59V816.121H1570.71"/>
<path transform="matrix(.24,0,0,-.24,0,1360.63)" d="M1636.85 840.926C1636.85 845.488 1633.15 849.191 1628.59 849.191 1624.02 849.191 1620.32 845.488 1620.32 840.926 1620.32 836.359 1624.02 832.656 1628.59 832.656 1633.15 832.656 1636.85 836.359 1636.85 840.926" fill="#ffffff"/>
<path transform="matrix(.24,0,0,-.24,0,1360.63)" d="M1587.24 832.656H1628.5838V849.1912H1587.24Z" fill="#ffffff"/>
<path transform="matrix(.24,0,0,-.24,0,1360.63)" d="M1854.17 816.121V898.793H1870.7L1895.51 836.789 1920.31 898.793H1936.84V816.121H1920.31V857.453L1903.77 816.121H1887.24L1870.7 857.453V816.121H1854.17"/>
<path transform="matrix(.24,0,0,-.24,0,1360.63)" d="M2137.62 898.793V816.121H2220.3V898.793H2203.76V832.656H2187.23V898.793H2170.69V832.656H2154.16V898.793H2137.62"/>
<path transform="matrix(.24,0,0,-.24,0,1360.63)" d="M2478.95 840.926C2478.95 854.621 2467.84 865.711 2454.14 865.711 2440.45 865.711 2429.34 854.621 2429.34 840.926 2429.34 827.219 2440.45 816.121 2454.14 816.121 2467.84 816.121 2478.95 827.219 2478.95 840.926"/>
<path transform="matrix(.24,0,0,-.24,0,1360.63)" d="M2487.21 816.121H2503.749V898.79287H2487.21Z"/>
<path transform="matrix(.24,0,0,-.24,0,1360.63)" d="M2421.07 898.793V816.121H2454.14V865.711H2437.6V898.793H2421.07"/>
<path transform="matrix(.24,0,0,-.24,0,1360.63)" d="M2462.41 840.926C2462.41 845.488 2458.71 849.191 2454.14 849.191 2449.57 849.191 2445.87 845.488 2445.87 840.926 2445.87 836.359 2449.57 832.656 2454.14 832.656 2458.71 832.656 2462.41 836.359 2462.41 840.926" fill="#ffffff"/>
<path transform="matrix(.24,0,0,-.24,0,1360.63)" d="M2437.6 832.656H2454.1392V849.1912H2437.6Z" fill="#ffffff"/>
<path transform="matrix(.24,0,0,-.24,0,1360.63)" d="M720.363 579.906V524.785H775.477V579.906H764.465V535.82H753.434V579.906H742.41V535.82H731.379V579.906H720.363"/>
<path transform="matrix(.24,0,0,-.24,0,1360.63)" d="M2787.2 541.324C2787.2 550.453 2779.8 557.867 2770.66 557.867 2761.53 557.867 2754.13 550.453 2754.13 541.324 2754.13 532.191 2761.53 524.785 2770.66 524.785 2779.8 524.785 2787.2 532.191 2787.2 541.324"/>
<path transform="matrix(.24,0,0,-.24,0,1360.63)" d="M2732.09 524.785V579.906H2787.2V568.879H2743.1V557.867H2770.66V524.785H2732.09"/>
<path transform="matrix(.24,0,0,-.24,0,1360.63)" d="M2776.18 541.324C2776.18 544.367 2773.71 546.832 2770.66 546.832 2767.62 546.832 2765.15 544.367 2765.15 541.324 2765.15 538.277 2767.62 535.82 2770.66 535.82 2773.71 535.82 2776.18 538.277 2776.18 541.324" fill="#ffffff"/>
<path transform="matrix(.24,0,0,-.24,0,1360.63)" d="M2743.1 535.82H2770.6627V546.8317H2743.1Z" fill="#ffffff"/>
<path transform="matrix(.24,0,0,-.24,0,1360.63)" d="M1295.14 579.906V524.785H1306.16V546.832H1339.23V524.785H1350.26V579.906H1339.23V557.867H1306.16V579.906H1295.14"/>
<path transform="matrix(.24,0,0,-.24,0,1360.63)" d="M1582.52 579.906V524.785H1593.55V546.832H1615.6V557.867H1593.55V579.906H1582.52"/>
<path transform="matrix(.24,0,0,-.24,0,1360.63)" d="M1612.84 546.832C1615.6 546.832 1621.11 544.082 1623.86 538.57 1626.62 533.063 1626.62 524.785 1626.62 524.785H1637.64C1637.64 524.785 1637.64 535.82 1634.88 541.324 1632.13 546.832 1626.62 552.34 1626.62 552.34 1626.62 552.34 1632.13 557.867 1634.88 563.379 1637.64 568.879 1637.64 579.906 1637.64 579.906H1626.62C1626.62 579.906 1626.62 571.637 1623.86 566.129 1621.11 560.625 1612.84 557.867 1612.84 557.867V546.832"/>
<path transform="matrix(.24,0,0,-.24,0,1360.63)" d="M1869.92 524.785V579.906H1880.95L1897.48 538.57 1914.02 579.906H1925.04V524.785H1914.02V552.34L1902.99 524.785H1891.97L1880.95 552.34V524.785H1869.92"/>
<path transform="matrix(.24,0,0,-.24,0,1360.63)" d="M2483.27 541.324C2483.27 550.453 2475.87 557.867 2466.73 557.867 2457.6 557.867 2450.2 550.453 2450.2 541.324 2450.2 532.191 2457.6 524.785 2466.73 524.785 2475.87 524.785 2483.27 532.191 2483.27 541.324"/>
<path transform="matrix(.24,0,0,-.24,0,1360.63)" d="M2488.78 524.785H2499.8114V579.90609H2488.78Z"/>
<path transform="matrix(.24,0,0,-.24,0,1360.63)" d="M2444.69 579.906V524.785H2466.73V557.867H2455.71V579.906H2444.69"/>
<path transform="matrix(.24,0,0,-.24,0,1360.63)" d="M2472.25 541.324C2472.25 544.367 2469.78 546.832 2466.73 546.832 2463.69 546.832 2461.22 544.367 2461.22 541.324 2461.22 538.277 2463.69 535.813 2466.73 535.813 2469.78 535.813 2472.25 538.277 2472.25 541.324" fill="#ffffff"/>
<path transform="matrix(.24,0,0,-.24,0,1360.63)" d="M2455.71 535.813H2466.7296V546.83248H2455.71Z" fill="#ffffff"/>
<path transform="matrix(.24,0,0,-.24,0,1360.63)" d="M2745.86 288.598V247.254H2754.14V263.793H2770.66V272.059H2754.14V288.598H2745.86"/>
<path transform="matrix(.24,0,0,-.24,0,1360.63)" d="M2768.6 263.793C2770.66 263.793 2774.8 261.727 2776.87 257.582 2778.93 253.457 2778.93 247.254 2778.93 247.254H2787.2C2787.2 247.254 2787.2 255.523 2785.13 259.656 2783.07 263.793 2778.93 267.926 2778.93 267.926 2778.93 267.926 2783.07 272.059 2785.13 276.195 2787.2 280.328 2787.2 288.598 2787.2 288.598H2778.93C2778.93 288.598 2778.93 282.387 2776.87 278.254 2774.8 274.129 2768.6 272.059 2768.6 272.059V263.793"/>
<path transform="matrix(.24,0,0,-.24,0,1360.63)" d="M1009.71 247.254V288.598H1017.98L1030.38 257.582 1042.78 288.598H1051.06V247.254H1042.78V267.926L1034.52 247.254H1026.25L1017.98 267.926V247.254H1009.71"/>
<path transform="matrix(.24,0,0,-.24,0,1360.63)" d="M1299.07 288.598V247.254H1340.41V288.598H1332.14V255.523H1323.88V288.598H1315.61V255.523H1307.34V288.598H1299.07"/>
<path transform="matrix(.24,0,0,-.24,0,1360.63)" d="M1617.38 259.656C1617.38 266.504 1611.81 272.059 1604.97 272.059 1598.12 272.059 1592.57 266.504 1592.57 259.656 1592.57 252.813 1598.12 247.254 1604.97 247.254 1611.81 247.254 1617.38 252.813 1617.38 259.656"/>
<path transform="matrix(.24,0,0,-.24,0,1360.63)" d="M1621.51 247.254H1629.7756V288.5978H1621.51Z"/>
<path transform="matrix(.24,0,0,-.24,0,1360.63)" d="M1588.43 288.598V247.254H1604.97V272.059H1596.7V288.598H1588.43"/>
<path transform="matrix(.24,0,0,-.24,0,1360.63)" d="M1609.1 259.656C1609.1 261.938 1607.25 263.793 1604.97 263.793 1602.68 263.793 1600.83 261.938 1600.83 259.656 1600.83 257.371 1602.68 255.523 1604.97 255.523 1607.25 255.523 1609.1 257.371 1609.1 259.656" fill="#ffffff"/>
<path transform="matrix(.24,0,0,-.24,0,1360.63)" d="M1596.7 255.523H1604.9695V263.7925H1596.7Z" fill="#ffffff"/>
<path transform="matrix(.24,0,0,-.24,0,1360.63)" d="M1877.79 288.598V247.254H1886.05V263.793H1910.86V247.254H1919.13V288.598H1910.86V272.059H1886.05V288.598H1877.79"/>
<path transform="matrix(.24,0,0,-.24,0,1360.63)" d="M2208.48 259.656C2208.48 266.512 2202.93 272.059 2196.08 272.059 2189.23 272.059 2183.68 266.512 2183.68 259.656 2183.68 252.813 2189.23 247.254 2196.08 247.254 2202.93 247.254 2208.48 252.813 2208.48 259.656"/>
<path transform="matrix(.24,0,0,-.24,0,1360.63)" d="M2167.15 247.254V288.598H2208.48V280.328H2175.41V272.059H2196.08V247.254H2167.15"/>
<path transform="matrix(.24,0,0,-.24,0,1360.63)" d="M2200.21 259.656C2200.21 261.945 2198.36 263.793 2196.08 263.793 2193.79 263.793 2191.95 261.945 2191.95 259.656 2191.95 257.371 2193.79 255.523 2196.08 255.523 2198.36 255.523 2200.21 257.371 2200.21 259.656" fill="#ffffff"/>
<path transform="matrix(.24,0,0,-.24,0,1360.63)" d="M2175.41 255.523H2196.078V263.7925H2175.41Z" fill="#ffffff"/>
<path transform="matrix(.24,0,0,-.24,0,1360.63)" d="M2456.51 247.254V288.598H2464.77L2477.18 257.582 2489.58 288.598H2497.84V247.254H2489.58V267.926L2481.31 247.254H2473.05L2464.77 267.926V247.254H2456.51"/>
<text xml:space="preserve" transform="matrix(1.0000007 0 -0 1.0000007 0 1360.63)" font-size="12.0004" font-family="Helvetica"><tspan y="-529.732" x="79.3453 88.009677 91.346248 98.35406 101.69063 108.36282 111.69845 118.37064">D = 8,33</tspan><tspan y="-442.3354" x="79.3453 88.009677 91.346248 98.35406 101.685939 108.35907 111.692829 118.36502">D = 7,14</tspan><tspan y="-359.0713" x="79.3453 88.009677 91.346248 98.35406 101.685939 108.35907 111.692829 118.36502">D = 6,25</tspan><tspan y="-278.9582" x="79.3453 88.009677 91.346248 98.35406 101.685939 108.35907 111.692829 118.36502">D = 5,55</tspan><tspan y="-201.32289" x="79.3453 88.009677 91.346248 98.35406 101.685939 108.35907 111.692829">D = 5,0</tspan><tspan y="-128.0967" x="79.3453 88.009677 91.346248 98.35406 101.69063 108.36282 111.69845 118.37064">D = 3,33</tspan><tspan y="-59.835397" x="79.3453 88.009677 91.346248 98.35406 101.685939 108.35907 111.692829">D = 2,5</tspan><tspan y="-529.7334" x="719.9463 727.9507 731.2873 738.2951 741.6251 748.2992 751.633">V = 0,6</tspan><tspan y="-442.3359" x="719.9463 727.9507 731.2873 738.2951 741.6251 748.2992 751.633">V = 0,7</tspan><tspan y="-359.0728" x="719.9463 727.9507 731.2873 738.2951 741.6251 748.2992 751.6348">V = 0,8</tspan><tspan y="-278.9587" x="719.9463 727.9507 731.2873 738.2951 741.6251 748.2992 751.633">V = 0,9</tspan><tspan y="-201.32341" x="719.9463 727.9507 731.2873 738.2951 741.6251 748.2992 751.633">V = 1,0</tspan><tspan y="-128.09722" x="719.9463 727.9507 731.2873 738.2951 741.6251 748.2992 751.633">V = 1,5</tspan></text>
<path transform="matrix(.24,0,0,-.24,0,1360.63)" d="M1877.79 2294.74V2156.95H1905.34V2163.84L1988.02 2246.51V2156.95H2015.58V2294.74H1988.02V2287.85L1905.34 2205.17V2294.74H1877.79"/>
<path transform="matrix(.24,0,0,-.24,0,1360.63)" d="M1110.11 1920.74V1802.63H1133.73V1808.54L1204.59 1879.4V1802.63H1228.21V1920.74H1204.59V1914.83L1133.73 1843.97V1920.74H1110.11"/>
<path transform="matrix(.24,0,0,-.24,0,1360.63)" d="M2683.86 1566.43V1463.08H2704.53V1468.25L2766.54 1530.25V1463.08H2787.2V1566.43H2766.54V1561.25L2704.53 1499.25V1566.43H2683.86"/>
<path transform="matrix(.24,0,0,-.24,0,1360.63)" d="M2037.01 1226.87V1135.01H2055.38V1139.6L2110.5 1194.71V1135.01H2128.87V1226.87H2110.5V1222.27L2055.38 1167.16V1226.87H2037.01"/>
<path transform="matrix(.24,0,0,-.24,0,1360.63)" d="M1287.27 898.793V816.121H1303.8V820.254L1353.41 869.855V816.121H1369.94V898.793H1353.41V894.66L1303.8 845.059V898.793H1287.27"/>
<path transform="matrix(.24,0,0,-.24,0,1360.63)" d="M1007.75 579.914V524.785H1018.78V527.555L1051.85 560.617V524.785H1062.87V579.914H1051.85V577.156L1018.78 544.082V579.914H1007.75"/>
<path transform="matrix(.24,0,0,-.24,0,1360.63)" d="M2157.3 579.914V524.785H2168.33V527.555L2201.4 560.617V524.785H2212.42V579.914H2201.4V577.156L2168.33 544.082V579.914H2157.3"/>
<path transform="matrix(.24,0,0,-.24,0,1360.63)" d="M720.363 288.598V247.262H728.629V249.324L753.422 274.129V247.262H761.695V288.598H753.422V286.531L728.629 261.727V288.598H720.363"/>
<text xml:space="preserve" transform="matrix(1.0000007 0 -0 1.0000007 0 1360.63)" font-size="12.0004" font-family="Helvetica"><tspan y="-59.8359" x="719.947 727.9514 731.28707 738.29586 741.62496 748.299 751.6328">V = 2,0</tspan></text>
</g>
<g clip-path="url(#clip_1)">
<path transform="matrix(.24,0,0,-.24,0,1360.63)" d="M720.363 3934.42V4347.79H803.031L927.043 4037.77 1051.06 4347.79H1133.73V3934.42H1051.06V4141.11L968.383 3934.42H885.715L803.031 4141.11V3934.42H720.363"/>
<path transform="matrix(.24,0,0,-.24,0,1360.63)" d="M2373.84 4347.79V3934.42H2456.51V4099.77H2621.86V4182.45H2456.51V4347.79H2373.84"/>
<path transform="matrix(.24,0,0,-.24,0,1360.63)" d="M2601.2 4099.77C2621.86 4099.77 2663.2 4079.1 2683.86 4037.77 2704.54 3996.43 2704.54 3934.42 2704.54 3934.42H2787.2C2787.2 3934.42 2787.2 4017.1 2766.54 4058.43 2745.87 4099.77 2704.54 4141.11 2704.54 4141.11 2704.54 4141.11 2745.87 4182.44 2766.54 4223.78 2787.2 4265.12 2787.2 4347.79 2787.2 4347.79H2704.54C2704.54 4347.79 2704.54 4285.79 2683.86 4244.45 2663.19 4203.11 2601.2 4182.45 2601.2 4182.45V4099.77"/>
<path transform="matrix(.24,0,0,-.24,0,1360.63)" d="M1547.09 4347.79V3934.42H1629.77V4099.77H1877.79V3934.42H1960.47V4347.79H1877.79V4182.45H1629.77V4347.79H1547.09"/>
<path transform="matrix(.24,0,0,-.24,0,1360.63)" d="M913.27 3493.5C913.27 3539.16 876.25 3576.17 830.59 3576.17 784.93 3576.17 747.922 3539.16 747.922 3493.5 747.922 3447.85 784.93 3410.83 830.59 3410.83 876.25 3410.83 913.27 3447.85 913.27 3493.5"/>
<path transform="matrix(.24,0,0,-.24,0,1360.63)" d="M940.82 3410.83H995.9333V3686.404H940.82Z"/>
<path transform="matrix(.24,0,0,-.24,0,1360.63)" d="M720.363 3686.4V3410.83H830.59V3576.17H775.469V3686.4H720.363"/>
<path transform="matrix(.24,0,0,-.24,0,1360.63)" d="M858.148 3493.5C858.148 3508.72 845.805 3521.05 830.59 3521.05 815.363 3521.05 803.031 3508.72 803.031 3493.5 803.031 3478.28 815.363 3465.95 830.59 3465.95 845.805 3465.95 858.148 3478.28 858.148 3493.5" fill="#ffffff"/>
<path transform="matrix(.24,0,0,-.24,0,1360.63)" d="M775.469 3465.95H830.5862V3521.0594H775.469Z" fill="#ffffff"/>
<path transform="matrix(.24,0,0,-.24,0,1360.63)" d="M1317.44 3410.83V3686.4H1372.57L1455.24 3479.72 1537.91 3686.4H1593.02V3410.83H1537.91V3548.62L1482.79 3410.83H1427.67L1372.57 3548.62V3410.83H1317.44"/>
<path transform="matrix(.24,0,0,-.24,0,1360.63)" d="M2190.11 3493.5C2190.11 3539.16 2153.1 3576.17 2107.44 3576.17 2061.78 3576.17 2024.77 3539.16 2024.77 3493.5 2024.77 3447.85 2061.78 3410.83 2107.44 3410.83 2153.1 3410.83 2190.11 3447.85 2190.11 3493.5"/>
<path transform="matrix(.24,0,0,-.24,0,1360.63)" d="M1914.54 3410.83V3686.4H2190.11V3631.29H1969.65V3576.17H2107.44V3410.83H1914.54"/>
<path transform="matrix(.24,0,0,-.24,0,1360.63)" d="M2135 3493.5C2135 3508.72 2122.66 3521.05 2107.44 3521.05 2092.22 3521.05 2079.89 3508.72 2079.89 3493.5 2079.89 3478.28 2092.22 3465.95 2107.44 3465.95 2122.66 3465.95 2135 3478.28 2135 3493.5" fill="#ffffff"/>
<path transform="matrix(.24,0,0,-.24,0,1360.63)" d="M1969.65 3465.95H2107.435V3521.0594H1969.65Z" fill="#ffffff"/>
<path transform="matrix(.24,0,0,-.24,0,1360.63)" d="M2511.63 3686.4V3410.83H2787.2V3686.4H2732.09V3465.94H2676.98V3686.4H2621.86V3465.94H2566.74V3686.4H2511.63"/>
<path transform="matrix(.24,0,0,-.24,0,1360.63)" d="M927.043 3018.13C927.043 3052.38 899.289 3080.14 865.039 3080.14 830.789 3080.14 803.031 3052.38 803.031 3018.13 803.031 2983.89 830.789 2956.12 865.039 2956.12 899.289 2956.12 927.043 2983.89 927.043 3018.13"/>
<path transform="matrix(.24,0,0,-.24,0,1360.63)" d="M720.363 2956.12V3162.81H927.043V3121.47H761.695V3080.14H865.039V2956.12H720.363"/>
<path transform="matrix(.24,0,0,-.24,0,1360.63)" d="M885.715 3018.13C885.715 3029.54 876.453 3038.8 865.039 3038.8 853.625 3038.8 844.367 3029.54 844.367 3018.13 844.367 3006.71 853.625 2997.47 865.039 2997.47 876.453 2997.47 885.715 3006.71 885.715 3018.13" fill="#ffffff"/>
<path transform="matrix(.24,0,0,-.24,0,1360.63)" d="M761.695 3038.8V2997.46L865.039 2997.47V3038.8H761.695" fill="#ffffff"/>
<path transform="matrix(.24,0,0,-.24,0,1360.63)" d="M2580.52 2956.12V3162.81H2621.86L2683.86 3007.79 2745.86 3162.81H2787.2V2956.12H2745.86V3059.46L2704.53 2956.12H2663.19L2621.86 3059.46V2956.12H2580.52"/>
<path transform="matrix(.24,0,0,-.24,0,1360.63)" d="M1650.44 3162.81V2956.12H1691.78V3038.8H1815.79V2956.12H1857.12V3162.81H1815.79V3080.14H1691.78V3162.81H1650.44"/>
<path transform="matrix(.24,0,0,-.24,0,1360.63)" d="M1330.08 3018.13C1330.08 3052.38 1302.32 3080.14 1268.07 3080.14 1233.82 3080.14 1206.07 3052.38 1206.07 3018.13 1206.07 2983.89 1233.82 2956.12 1268.07 2956.12 1302.32 2956.12 1330.08 2983.89 1330.08 3018.13"/>
<path transform="matrix(.24,0,0,-.24,0,1360.63)" d="M1350.75 2956.12H1392.0781V3162.808H1350.75Z"/>
<path transform="matrix(.24,0,0,-.24,0,1360.63)" d="M1185.4 3162.81V2956.12H1268.07V3080.14H1226.74V3162.81H1185.4"/>
<path transform="matrix(.24,0,0,-.24,0,1360.63)" d="M1288.74 3018.13C1288.74 3029.54 1279.49 3038.8 1268.07 3038.8 1256.66 3038.8 1247.41 3029.54 1247.41 3018.13 1247.41 3006.71 1256.66 2997.47 1268.07 2997.47 1279.49 2997.47 1288.74 3006.71 1288.74 3018.13" fill="#ffffff"/>
<path transform="matrix(.24,0,0,-.24,0,1360.63)" d="M1226.74 2997.46H1268.0681V3038.7999H1226.74Z" fill="#ffffff"/>
<path transform="matrix(.24,0,0,-.24,0,1360.63)" d="M2115.48 3162.81V2956.12H2156.81V3038.8H2239.49V3080.14H2156.81V3162.81H2115.48"/>
<path transform="matrix(.24,0,0,-.24,0,1360.63)" d="M2229.16 3038.8C2239.49 3038.8 2260.15 3028.46 2270.48 3007.79 2280.82 2987.13 2280.82 2956.12 2280.82 2956.12H2322.16C2322.16 2956.12 2322.16 2997.46 2311.82 3018.13 2301.49 3038.8 2280.82 3059.46 2280.82 3059.46 2280.82 3059.46 2301.49 3080.14 2311.82 3100.81 2322.16 3121.47 2322.16 3162.81 2322.16 3162.81H2280.82C2280.82 3162.81 2280.82 3131.8 2270.48 3111.14 2260.15 3090.47 2229.16 3080.14 2229.16 3080.14V3038.8"/>
<path transform="matrix(.24,0,0,-.24,0,1360.63)" d="M2621.86 2708.1V2542.75H2654.93V2608.89H2721.06V2641.96H2654.93V2708.1H2621.86"/>
<path transform="matrix(.24,0,0,-.24,0,1360.63)" d="M2712.8 2608.89C2721.06 2608.89 2737.6 2600.62 2745.86 2584.09 2754.14 2567.55 2754.14 2542.75 2754.14 2542.75H2787.2C2787.2 2542.75 2787.2 2575.82 2778.94 2592.36 2770.66 2608.89 2754.14 2625.43 2754.14 2625.43 2754.14 2625.43 2770.66 2641.96 2778.94 2658.5 2787.2 2675.03 2787.2 2708.1 2787.2 2708.1H2754.14C2754.14 2708.1 2754.14 2683.29 2745.86 2666.76 2737.59 2650.23 2712.8 2641.96 2712.8 2641.96V2608.89"/>
<path transform="matrix(.24,0,0,-.24,0,1360.63)" d="M1671.11 2708.1V2542.75H1836.45V2708.1H1803.38V2575.82H1770.31V2708.1H1737.25V2575.82H1704.18V2708.1H1671.11"/>
<path transform="matrix(.24,0,0,-.24,0,1360.63)" d="M1195.73 2708.1V2542.75H1228.8V2608.89H1328.01V2542.75H1361.08V2708.1H1328.01V2641.96H1228.8V2708.1H1195.73"/>
<path transform="matrix(.24,0,0,-.24,0,1360.63)" d="M2146.48 2542.75V2708.1H2179.55L2229.16 2584.09 2278.75 2708.1H2311.83V2542.75H2278.75V2625.43L2245.69 2542.75H2212.62L2179.54 2625.43 2179.55 2542.75H2146.48"/>
<text xml:space="preserve" transform="matrix(1.0000007 0 -0 1.0000007 0 1360.63)" font-size="12.0004" font-family="Helvetica"><tspan y="-989.398" x="79.3453 88.009677 91.346248 98.35406 101.69063 108.36282 115.03502 118.37064">D = 25,0</tspan><tspan y="-850.033" x="79.3453 88.009677 91.346248 98.35406 101.685939 108.35907 115.033138 118.36689 125.03908">D = 16,67</tspan><tspan y="-729.80508" x="79.3453 88.009677 91.346248 98.35406 101.685939 108.35907 115.031269 118.36783">D = 12,5</tspan><tspan y="-625.63607" x="79.3453 88.009677 91.346248 98.35406 101.685939 108.35907 115.031269 118.36783">D = 10,0</tspan><tspan y="-989.3981" x="719.9463 727.9507 731.2873 738.2951 741.6317 748.3039 751.6395">V = 0,2</tspan><tspan y="-847.1991" x="719.9463 727.9507 731.2873 738.2951 741.6317 748.3039 751.633">V = 0,3</tspan><tspan y="-729.8051" x="719.9463 727.9507 731.2873 738.2951 741.6317 748.3039 751.633">V = 0,4</tspan></text>
<path transform="matrix(.24,0,0,-.24,0,1360.63)" d="M720.363 2708.1V2542.75H753.422V2551.02L852.641 2650.23V2542.75H885.703V2708.1H852.641V2699.83L753.422 2600.63V2708.1H720.363"/>
<text xml:space="preserve" transform="matrix(1.0000007 0 -0 1.0000007 0 1360.63)" font-size="12.0004" font-family="Helvetica"><tspan y="-625.636" x="719.947 727.9514 731.28707 738.29586 741.6315 748.30459 751.6402">V = 0,5</tspan></text>
</g>
<g clip-path="url(#clip_2)">
<path transform="matrix(.24,0,0,-.24,0,1360.63)" d="M720.359 5422.81V4596.08H1547.09V5422.81H1381.75V4761.42H1216.4V5422.81H1051.06V4761.42H885.703V5422.81H720.359"/>
<path transform="matrix(.24,0,0,-.24,0,1360.63)" d="M2787.2 4844.09C2787.2 4981.08 2676.16 5092.12 2539.18 5092.12 2402.2 5092.12 2291.16 4981.08 2291.16 4844.09 2291.16 4707.12 2402.2 4596.08 2539.18 4596.08 2676.16 4596.08 2787.2 4707.12 2787.2 4844.09"/>
<path transform="matrix(.24,0,0,-.24,0,1360.63)" d="M1960.47 4596.08V5422.81H2787.2V5257.46H2125.81V5092.12H2539.18V4596.08H1960.47"/>
<path transform="matrix(.24,0,0,-.24,0,1360.63)" d="M2621.86 4844.1C2621.86 4889.76 2584.84 4926.78 2539.18 4926.78 2493.52 4926.78 2456.5 4889.76 2456.5 4844.1 2456.5 4798.45 2493.52 4761.43 2539.18 4761.43 2584.84 4761.43 2621.86 4798.45 2621.86 4844.1" fill="#ffffff"/>
<path transform="matrix(.24,0,0,-.24,0,1360.63)" d="M2125.81 4926.78V4761.42L2539.18 4761.43V4926.78H2125.81" fill="#ffffff"/>
<text xml:space="preserve" transform="matrix(1.0000007 0 -0 1.0000007 0 1360.63)" font-size="12.0004" font-family="Helvetica"><tspan y="-1199" x="79.3453 88.009677 91.346248 98.35406 101.69063 108.36282 115.03502 118.37064">D = 50,0</tspan><tspan y="-1197.8019" x="719.9463 727.9507 731.2873 738.2951 741.6317 748.3039 751.633">V = 0,1</tspan></text>
</g>
</svg>
