<?xml version="1.0" encoding="UTF-8" standalone="no"?>
<!DOCTYPE svg PUBLIC "-//W3C//DTD SVG 1.1//EN" "http://www.w3.org/Graphics/SVG/1.1/DTD/svg11.dtd">
<svg width="100%" height="100%" viewBox="0 0 816 1056" version="1.1" xmlns="http://www.w3.org/2000/svg" xmlns:xlink="http://www.w3.org/1999/xlink" xml:space="preserve" xmlns:serif="http://www.serif.com/" style="fill-rule:evenodd;clip-rule:evenodd;stroke-linejoin:round;stroke-miterlimit:2;">
    <g id="g8" transform="matrix(1.33333,0,0,-1.33333,0,1056)">
        <g id="g12">
            <g id="g14">
                <path id="path20" d="M267.892,385.615L273.071,385.615C275.295,385.615 276.886,385.241 277.844,384.492C278.289,384.151 278.631,383.682 278.871,383.086C279.11,382.49 279.23,381.891 279.23,380.937C279.23,379.983 279.059,379.384 278.717,378.788C278.375,378.192 277.921,377.732 277.357,377.408C276.792,377.085 276.142,376.863 275.406,376.744C274.67,376.625 273.892,376.565 273.071,376.565L267.886,376.565L267.892,385.615ZM253.342,392.685L253.342,385.634L260.216,385.634L260.216,361.525L253.342,361.525L253.342,355.01L275.015,355.01L275.015,361.525L267.873,361.525L267.889,369.935L273.696,369.935C278.045,369.935 281.392,370.73 283.737,372.673C286.149,374.648 287.355,377.51 287.355,381.257C287.355,383.369 287.007,385.166 286.311,386.648C285.616,388.13 284.657,389.331 283.435,390.251C282.214,391.171 280.78,391.835 279.133,392.243C277.487,392.652 275.697,392.68 273.762,392.68L267.886,392.68L253.342,392.685Z" style="fill:rgb(35,31,32);"/>
                <path id="path22" d="M213.593,368.044L206.541,368.044L206.541,362.057L192.755,362.057L192.755,386.169L199.898,386.169L199.898,392.686L178.223,392.686L178.223,386.169L185.098,386.169L185.098,362.057L178.223,362.057L178.223,355.005L213.593,355.005L213.593,368.044Z" style="fill:rgb(35,31,32);fill-rule:nonzero;"/>
                <path id="path24" d="M361.652,379.665L354.593,379.665L354.593,385.656L340.797,385.656L340.797,377.401L348.273,377.401L348.273,370.344L340.797,370.292L340.797,361.526L354.593,361.526L354.593,367.448L361.652,367.448L361.652,355.005L326.253,355.005L326.253,361.526L333.133,361.526L333.133,385.656L326.253,385.656L326.253,392.715L361.652,392.715L361.652,379.665Z" style="fill:rgb(35,31,32);fill-rule:nonzero;"/>
                <path id="path26" d="M425.579,383.142C426.338,382.147 426.914,380.902 427.311,379.408C427.708,377.914 427.906,376.154 427.906,374.127C427.906,372.479 427.768,370.925 427.492,369.466C427.217,368.006 426.725,366.719 426.018,365.603C425.311,364.487 424.347,363.611 423.123,362.976C421.899,362.34 420.34,362.023 418.443,362.023L413.676,362.023L413.676,386.13L418.547,386.13C421.719,386.13 424.063,385.134 425.579,383.142M418.936,355.005L399.124,355.005L399.124,362.057L406,362.057L406,386.169L399.124,386.169L399.124,392.686L406.014,392.686L418.539,392.712C421.585,392.712 424.212,392.258 426.42,391.349C428.627,390.441 430.449,389.146 431.887,387.465C433.324,385.785 434.386,383.77 435.07,381.42C435.755,379.072 436.097,376.439 436.097,373.525C436.097,370.472 435.737,367.771 435.018,365.422C434.3,363.073 433.171,361.076 431.63,359.429C429.61,357.2 426.768,355.005 418.936,355.005" style="fill:rgb(35,31,32);"/>
                <path id="path28" d="M343.647,201.877L346.229,201.877C347.337,201.877 348.131,201.69 348.609,201.315C348.831,201.147 349.001,200.912 349.121,200.615C349.241,200.317 349.299,200.02 349.299,199.543C349.299,199.067 349.215,198.77 349.044,198.473C348.874,198.175 348.648,197.945 348.366,197.784C348.083,197.622 347.759,197.512 347.393,197.452C347.026,197.393 346.638,197.363 346.228,197.363L343.643,197.363L343.647,201.877ZM336.392,205.401L336.392,201.886L339.82,201.886L339.82,189.864L336.392,189.864L336.392,186.615L347.199,186.615L347.199,189.864L343.637,189.864L343.645,194.058L346.542,194.058C348.708,194.058 350.378,194.454 351.547,195.423C352.751,196.408 353.352,197.834 353.352,199.703C353.352,200.757 353.178,201.652 352.832,202.391C352.485,203.13 352.006,203.73 351.398,204.188C350.789,204.647 350.073,204.978 349.251,205.182C348.43,205.385 347.538,205.399 346.573,205.399L343.643,205.399L336.392,205.401Z" style="fill:rgb(35,31,32);"/>
                <path id="path30" d="M239.361,198.909L235.842,198.909L235.842,201.896L228.962,201.896L228.962,197.78L232.69,197.78L232.69,194.261L228.962,194.235L228.962,189.864L235.842,189.864L235.842,192.817L239.361,192.817L239.361,186.612L221.71,186.612L221.71,189.864L225.141,189.864L225.141,201.896L221.71,201.896L221.71,205.416L239.361,205.416L239.361,198.909Z" style="fill:rgb(35,31,32);fill-rule:nonzero;"/>
                <path id="path32" d="M424.975,200.644C425.352,200.147 425.64,199.526 425.837,198.781C426.036,198.037 426.134,197.159 426.134,196.149C426.134,195.327 426.066,194.551 425.928,193.824C425.791,193.096 425.546,192.454 425.194,191.898C424.841,191.341 424.359,190.904 423.749,190.587C423.14,190.27 422.362,190.112 421.416,190.112L419.039,190.112L419.039,202.133L421.467,202.133C423.049,202.133 424.218,201.636 424.975,200.644M421.662,186.613L411.783,186.613L411.783,190.13L415.211,190.13L415.211,202.153L411.783,202.153L411.783,205.402L415.217,205.402L421.464,205.415C422.983,205.415 424.292,205.188 425.393,204.736C426.494,204.283 427.403,203.637 428.12,202.799C428.836,201.961 429.365,200.956 429.707,199.785C430.048,198.613 430.218,197.3 430.218,195.847C430.218,194.326 430.039,192.979 429.681,191.807C429.323,190.635 428.759,189.64 427.992,188.819C426.985,187.706 425.568,186.613 421.662,186.613" style="fill:rgb(35,31,32);"/>
                <path id="path34" d="M201.736,198.898L198.22,198.898L198.22,201.882L191.347,201.882L191.347,197.77L194.896,197.77L194.896,194.253L191.347,194.228L191.347,189.862L194.908,189.862L194.908,186.612L184.101,186.612L184.101,189.862L187.529,189.862L187.529,201.882L184.101,201.882L184.101,205.399L201.736,205.399L201.736,198.898Z" style="fill:rgb(35,31,32);fill-rule:nonzero;"/>
                <path id="path36" d="M388.583,189.901L388.58,192.814L392.097,192.814L392.097,186.615L392.079,186.63L392.079,186.612L374.062,186.612L374.062,189.749L386.932,201.849L377.579,201.849L377.578,198.9L374.062,198.9L374.062,205.401L391.975,205.401L391.975,202.165L378.794,189.901L388.583,189.901Z" style="fill:rgb(35,31,32);fill-rule:nonzero;"/>
                <path id="path38" d="M277.715,193.114L274.198,193.114L274.198,190.13L267.324,190.13L267.324,202.152L270.886,202.152L270.886,205.401L260.078,205.401L260.078,202.152L263.506,202.152L263.506,190.13L260.078,190.13L260.078,186.612L277.715,186.612L277.715,193.114Z" style="fill:rgb(35,31,32);fill-rule:nonzero;"/>
                <path id="path40" d="M297.509,196.075C297.509,201.349 301.785,205.626 307.06,205.626C312.334,205.626 316.61,201.349 316.61,196.075C316.61,190.801 312.334,186.525 307.06,186.525C301.785,186.525 297.509,190.801 297.509,196.075M300.947,196.075C300.947,199.451 303.684,202.187 307.06,202.187C310.435,202.187 313.171,199.451 313.171,196.075C313.171,192.699 310.435,189.963 307.06,189.963C303.684,189.963 300.947,192.699 300.947,196.075" style="fill:rgb(35,31,32);"/>
                <path id="path42" d="M273.676,545.095L262.264,545.095L262.264,554.783L239.956,554.783L239.956,541.434L251.475,541.434L251.475,530.022L239.956,529.939L239.956,515.765L251.515,515.765L251.515,505.22L216.44,505.22L216.44,515.765L227.566,515.765L227.566,554.783L216.44,554.783L216.44,566.194L273.676,566.194L273.676,545.095Z" style="fill:rgb(35,31,32);fill-rule:nonzero;"/>
                <path id="path44" d="M366.381,554.753L374.762,554.753C378.362,554.753 380.937,554.147 382.488,552.934C383.208,552.382 383.762,551.624 384.15,550.659C384.537,549.694 384.731,548.725 384.731,547.181C384.731,545.637 384.454,544.668 383.9,543.703C383.346,542.738 382.612,541.994 381.699,541.47C380.785,540.946 379.733,540.587 378.543,540.395C377.352,540.202 376.092,540.105 374.762,540.105L366.372,540.105L366.381,554.753ZM342.834,566.194L342.834,554.782L353.959,554.782L353.959,515.765L342.834,515.765L342.834,505.22L377.908,505.22L377.908,515.765L366.35,515.765L366.376,529.376L375.775,529.376C382.813,529.376 388.23,530.663 392.025,533.805C395.928,537.003 397.88,541.634 397.88,547.699C397.88,551.117 397.318,554.025 396.192,556.424C395.066,558.822 393.514,560.766 391.536,562.254C389.559,563.743 387.238,564.817 384.574,565.479C381.909,566.141 379.012,566.187 375.882,566.187L366.372,566.187L342.834,566.194Z" style="fill:rgb(35,31,32);"/>
                <path id="path46" d="M232.319,456.318L223.367,456.318L223.367,463.917L214.171,463.917L214.171,433.311L223.237,433.311L223.237,425.039L195.723,425.039L195.723,433.311L204.45,433.311L204.45,463.917L195.255,463.917L195.255,456.318L186.302,456.318L186.302,472.869L232.319,472.869L232.319,456.318Z" style="fill:rgb(35,31,32);fill-rule:nonzero;"/>
                <path id="path48" d="M283.218,448.968C283.218,462.397 294.104,473.283 307.534,473.283C320.964,473.283 331.849,462.397 331.849,448.968C331.849,435.539 320.964,424.653 307.534,424.653C294.104,424.653 283.218,435.539 283.218,448.968M291.972,448.968C291.972,457.562 298.939,464.529 307.534,464.529C316.129,464.529 323.095,457.562 323.095,448.968C323.095,440.373 316.129,433.406 307.534,433.406C298.939,433.406 291.972,440.373 291.972,448.968" style="fill:rgb(35,31,32);"/>
                <path id="path50" d="M419.072,433.412L419.065,440.829L428.017,440.829L428.017,425.047L427.972,425.088L427.972,425.04L382.1,425.04L382.1,433.027L414.868,463.835L391.055,463.835L391.051,456.326L382.1,456.326L382.1,472.877L427.71,472.877L427.71,464.638L394.147,433.412L419.072,433.412Z" style="fill:rgb(35,31,32);fill-rule:nonzero;"/>
                <path id="path52" d="M364.341,677.804L341.539,677.804L341.539,697.16L296.966,697.16L296.966,670.49L321.119,670.49L321.119,647.688L296.966,647.522L296.966,619.201L341.539,619.201L341.539,638.334L364.341,638.334L364.341,598.132L249.979,598.132L249.979,619.201L272.209,619.201L272.209,697.16L249.979,697.16L249.979,719.962L364.341,719.962L364.341,677.804Z" style="fill:rgb(35,31,32);fill-rule:nonzero;"/>
                <path id="path54" d="M170.535,322.793L170.535,317.275L175.914,317.275L175.914,298.412L170.535,298.412L170.535,293.314L187.493,293.314L187.493,298.412L181.904,298.412L181.917,304.992L186.461,304.992C189.864,304.992 192.482,305.614 194.317,307.134C196.204,308.68 197.148,310.918 197.148,313.851C197.148,315.503 196.876,316.909 196.331,318.068C195.787,319.229 195.037,320.168 194.081,320.888C193.125,321.607 192.003,322.127 190.715,322.447C189.427,322.767 188.026,322.789 186.513,322.789L181.915,322.789L170.535,322.793ZM181.919,317.261L185.972,317.261C187.712,317.261 188.957,316.968 189.706,316.381C190.055,316.114 190.323,315.748 190.51,315.282C190.697,314.815 190.791,314.347 190.791,313.601C190.791,312.854 190.657,312.386 190.389,311.919C190.121,311.452 189.767,311.092 189.325,310.839C188.884,310.586 188.374,310.413 187.799,310.32C187.223,310.227 186.614,310.18 185.972,310.18L181.915,310.18L181.919,317.261ZM260.785,312.605L255.264,312.605L255.264,317.293L244.468,317.293L244.468,310.834L250.318,310.834L250.318,305.312L244.468,305.272L244.468,298.413L255.264,298.413L255.264,303.046L260.785,303.046L260.785,293.311L233.089,293.311L233.089,298.413L238.472,298.413L238.472,317.293L233.089,317.293L233.089,322.815L260.785,322.815L260.785,312.605ZM430.36,293.311L414.858,293.311L414.858,298.828L420.237,298.828L420.237,317.693L414.858,317.693L414.858,322.793L420.247,322.793L430.048,322.814C432.431,322.814 434.487,322.457 436.214,321.747C437.941,321.035 439.368,320.022 440.492,318.708C441.617,317.393 442.447,315.816 442.983,313.979C443.518,312.141 443.785,310.08 443.785,307.801C443.785,305.412 443.505,303.299 442.942,301.46C442.38,299.623 441.495,298.06 440.291,296.772C438.711,295.027 436.488,293.311 430.36,293.311M435.556,315.325C436.151,314.546 436.602,313.571 436.911,312.403C437.222,311.234 437.377,309.857 437.377,308.272C437.377,306.982 437.27,305.767 437.053,304.624C436.838,303.482 436.453,302.475 435.9,301.602C435.348,300.729 434.592,300.043 433.635,299.546C432.677,299.049 431.457,298.8 429.974,298.8L426.243,298.8L426.243,317.663L430.054,317.663C432.536,317.663 434.369,316.884 435.556,315.325M382.827,312.587L377.311,312.587L377.311,317.27L366.526,317.27L366.526,310.816L372.095,310.816L372.095,305.299L366.526,305.259L366.526,298.407L372.114,298.407L372.114,293.309L355.157,293.309L355.157,298.407L360.535,298.407L360.535,317.27L355.157,317.27L355.157,322.787L382.827,322.787L382.827,312.587ZM292.937,308.082C292.937,316.358 299.646,323.067 307.922,323.067C311.348,323.067 314.506,321.918 317.031,319.983L317.031,321.566L322.547,321.586L322.542,311.387L317.031,311.386C315.582,315.055 312.058,317.673 307.922,317.673C302.625,317.673 298.331,313.379 298.331,308.082C298.331,302.785 302.625,298.491 307.922,298.491C312.087,298.491 315.632,301.147 316.957,304.857L322.56,304.857C321.085,298.131 315.092,293.096 307.922,293.096C299.646,293.096 292.937,299.805 292.937,308.082" style="fill:rgb(35,31,32);"/>
                <path id="path56" d="M414.782,260.941L414.782,256.597L419.017,256.597L419.017,241.748L414.782,241.748L414.782,237.734L428.133,237.734L428.133,241.748L423.733,241.748L423.744,246.928L427.32,246.928C429.999,246.928 432.06,247.419 433.504,248.614C434.991,249.831 435.734,251.593 435.734,253.901C435.734,255.203 435.519,256.31 435.091,257.222C434.663,258.135 434.072,258.875 433.319,259.442C432.566,260.008 431.683,260.418 430.67,260.67C429.655,260.921 428.553,260.939 427.361,260.939L423.742,260.939L414.782,260.941ZM423.745,256.587L426.934,256.587C428.304,256.587 429.285,256.356 429.875,255.894C430.149,255.684 430.36,255.395 430.508,255.029C430.655,254.661 430.729,254.292 430.729,253.705C430.729,253.117 430.624,252.748 430.413,252.381C430.202,252.013 429.923,251.731 429.575,251.531C429.227,251.332 428.827,251.195 428.374,251.122C427.921,251.048 427.44,251.011 426.934,251.011L423.742,251.011L423.745,256.587ZM200.39,252.92L196.043,252.92L196.043,256.611L187.544,256.611L187.544,251.527L192.149,251.527L192.149,247.18L187.544,247.148L187.544,241.749L196.043,241.749L196.043,245.396L200.39,245.396L200.39,237.731L178.586,237.731L178.586,241.749L182.824,241.749L182.824,256.611L178.586,256.611L178.586,260.959L200.39,260.959L200.39,252.92ZM237.593,237.731L225.389,237.731L225.389,242.076L229.624,242.076L229.624,256.927L225.389,256.927L225.389,260.941L229.633,260.941L237.348,260.958C239.224,260.958 240.842,260.677 242.202,260.118C243.562,259.558 244.684,258.761 245.57,257.725C246.456,256.691 247.109,255.449 247.531,254.002C247.952,252.555 248.163,250.933 248.163,249.139C248.163,247.258 247.942,245.594 247.499,244.148C247.056,242.7 246.361,241.469 245.412,240.457C244.168,239.083 242.417,237.731 237.593,237.731M241.684,255.062C242.152,254.45 242.507,253.682 242.752,252.762C242.996,251.841 243.118,250.758 243.118,249.51C243.118,248.495 243.033,247.538 242.863,246.639C242.693,245.74 242.39,244.947 241.955,244.259C241.52,243.571 240.926,243.032 240.172,242.64C239.418,242.25 238.457,242.053 237.29,242.053L234.353,242.053L234.353,256.903L237.353,256.903C239.307,256.903 240.751,256.29 241.684,255.062M294.729,252.907L290.386,252.907L290.386,256.593L281.896,256.593L281.896,251.513L286.28,251.513L286.28,247.17L281.896,247.138L281.896,241.744L286.295,241.744L286.295,237.73L272.945,237.73L272.945,241.744L277.18,241.744L277.18,256.593L272.945,256.593L272.945,260.937L294.729,260.937L294.729,252.907ZM385.064,241.793L385.06,245.391L389.404,245.391L389.404,237.734L367.127,237.731L367.127,241.606L383.025,256.553L371.47,256.553L371.469,252.911L367.127,252.911L367.127,260.941L389.255,260.941L389.255,256.943L372.971,241.793L385.064,241.793ZM319.087,249.36C319.087,255.876 324.369,261.158 330.885,261.158C333.582,261.158 336.067,260.253 338.054,258.73L338.054,259.975L342.398,259.992L342.394,251.962L338.054,251.961C336.915,254.85 334.14,256.911 330.885,256.911C326.715,256.911 323.335,253.531 323.335,249.36C323.335,245.19 326.715,241.809 330.885,241.809C334.164,241.809 336.955,243.9 337.998,246.821L342.408,246.821C341.247,241.526 336.529,237.563 330.885,237.563C324.369,237.563 319.087,242.844 319.087,249.36" style="fill:rgb(35,31,32);"/>
                <path id="path58" d="M409.128,146.626C409.354,144.182 411.411,142.268 413.915,142.268C416.003,142.268 417.78,143.599 418.444,145.458L421.252,145.458C420.514,142.086 417.509,139.563 413.915,139.563C409.918,139.563 406.65,142.685 406.416,146.622L409.128,146.626ZM384.62,146.626L384.62,145.637L381.688,145.616L381.688,142.179L387.099,142.179L387.099,144.5L389.866,144.5L389.866,139.62L375.983,139.62L375.983,142.179L378.683,142.179L378.683,146.626L384.62,146.626ZM354.319,146.626L354.319,142.188L357.12,142.188L357.12,139.632L348.62,139.632L348.62,142.188L351.316,142.188L351.316,146.626L354.319,146.626ZM326.985,146.626C326.759,144.182 324.702,142.268 322.199,142.268C319.694,142.268 317.638,144.182 317.411,146.626L314.7,146.626C314.934,142.685 318.202,139.563 322.199,139.563C326.195,139.563 329.463,142.685 329.697,146.622L326.985,146.626ZM287.511,146.626L287.511,142.189L284.814,142.189L284.814,139.633L293.315,139.633L293.315,142.189L290.513,142.189L290.52,145.487L292.798,145.487C294.503,145.487 295.816,145.8 296.736,146.561C296.76,146.582 296.785,146.603 296.81,146.623L287.511,146.626ZM262.82,146.626L262.82,145.642L260.028,145.621L260.028,142.187L262.83,142.187L262.83,139.631L254.329,139.631L254.329,142.187L257.026,142.187L257.026,146.626L262.82,146.626ZM232.98,146.626L232.98,145.647L230.048,145.627L230.048,142.189L235.459,142.189L235.459,144.512L238.228,144.512L238.228,139.632L224.344,139.632L224.344,142.189L227.042,142.189L227.042,146.626L232.98,146.626ZM204.345,146.626C204.324,146.166 204.274,145.725 204.194,145.303C204.086,144.73 203.893,144.227 203.616,143.788C203.338,143.351 202.96,143.007 202.48,142.758C202.001,142.509 201.388,142.384 200.645,142.384L198.775,142.384L198.775,146.626L195.764,146.626L195.764,142.397L193.067,142.397L193.067,139.632L200.838,139.632C203.91,139.632 205.025,140.492 205.817,141.366C206.421,142.012 206.864,142.796 207.146,143.718C207.407,144.57 207.547,145.542 207.566,146.631L204.345,146.626Z" style="fill:rgb(35,31,32);"/>
                <path id="path60" d="M290.521,151.638L292.552,151.638C293.424,151.638 294.049,151.491 294.425,151.198C294.599,151.064 294.733,150.879 294.827,150.646C294.921,150.411 294.968,150.177 294.968,149.803C294.968,149.429 294.901,149.194 294.767,148.96C294.632,148.726 294.455,148.546 294.233,148.419C294.012,148.291 293.757,148.204 293.468,148.159C293.18,148.112 292.874,148.088 292.552,148.088L290.519,148.088L290.521,151.638ZM406.416,146.626C406.408,146.773 406.403,146.923 406.403,147.076C406.403,151.224 409.766,154.587 413.915,154.587C415.633,154.587 417.216,154.011 418.48,153.04L418.48,153.834L421.246,153.844L421.243,148.732L418.48,148.732C417.754,150.571 415.987,151.883 413.915,151.883C411.26,151.883 409.107,149.73 409.107,147.076C409.107,146.923 409.114,146.774 409.128,146.626L406.416,146.626ZM378.683,146.626L378.683,151.643L375.983,151.643L375.983,154.41L389.866,154.41L389.866,149.292L387.099,149.292L387.099,151.643L381.688,151.643L381.688,148.405L384.62,148.405L384.62,146.626L378.683,146.626ZM351.316,146.626L351.316,151.643L348.475,151.643L348.475,149.295L345.71,149.295L345.71,154.409L359.926,154.409L359.926,149.295L357.16,149.295L357.16,151.643L354.319,151.643L354.319,146.626L351.316,146.626ZM314.7,146.626C314.69,146.773 314.687,146.923 314.687,147.076C314.687,151.224 318.05,154.587 322.199,154.587C326.348,154.587 329.711,151.224 329.711,147.076C329.711,146.923 329.706,146.773 329.697,146.622L326.985,146.626C326.999,146.774 327.006,146.923 327.006,147.076C327.006,149.73 324.854,151.883 322.199,151.883C319.543,151.883 317.391,149.73 317.391,147.076C317.391,146.923 317.398,146.774 317.411,146.626L314.7,146.626ZM296.81,146.626C297.706,147.396 298.155,148.497 298.155,149.928C298.155,150.757 298.018,151.462 297.745,152.043C297.473,152.624 297.096,153.095 296.617,153.455C296.138,153.817 295.576,154.077 294.93,154.238C294.285,154.398 293.582,154.409 292.823,154.409L290.519,154.409L284.814,154.41L284.814,151.645L287.511,151.645L287.511,146.626L296.81,146.626ZM257.026,146.626L257.026,151.642L254.329,151.642L254.329,154.409L268.2,154.409L268.2,149.294L265.435,149.294L265.435,151.642L260.028,151.642L260.028,148.408L262.82,148.408L262.82,146.626L257.026,146.626ZM227.042,146.626L227.042,151.655L224.344,151.655L224.344,154.422L238.228,154.422L238.228,149.304L235.459,149.304L235.459,151.655L230.048,151.655L230.048,148.416L232.98,148.416L232.98,146.626L227.042,146.626ZM195.764,146.626L195.764,151.855L193.067,151.855L193.067,154.41L195.769,154.41L200.682,154.421C201.877,154.421 202.907,154.242 203.773,153.886C204.639,153.531 205.354,153.023 205.917,152.363C206.481,151.704 206.897,150.913 207.166,149.992C207.434,149.072 207.568,148.039 207.568,146.896C207.568,146.807 207.568,146.719 207.566,146.631L204.345,146.626C204.353,146.793 204.356,146.961 204.356,147.132C204.356,147.927 204.278,148.617 204.123,149.203C203.967,149.788 203.741,150.278 203.443,150.668C202.849,151.449 201.929,151.839 200.685,151.839L198.775,151.839L198.775,146.626L195.764,146.626Z" style="fill:rgb(35,31,32);"/>
                <path id="path62" d="M412.066,102.497L412.066,97.535L414.345,97.535L414.345,95.456L407.429,95.456L407.429,97.535L409.623,97.535L409.623,102.497L412.066,102.497ZM377.846,102.497C377.764,102.183 377.721,101.853 377.721,101.513C377.721,99.351 379.473,97.601 381.632,97.601C383.333,97.601 384.779,98.683 385.318,100.196L387.603,100.196C387.003,97.453 384.557,95.399 381.632,95.399C378.257,95.399 375.52,98.137 375.52,101.513C375.52,101.848 375.547,102.177 375.599,102.498L377.846,102.497ZM348.662,102.497L348.662,97.537L346.467,97.537L346.467,95.457L353.384,95.457L353.384,97.537L351.105,97.537L351.11,100.221L352.963,100.221C354.351,100.221 355.42,100.475 356.168,101.094C356.62,101.465 356.939,101.933 357.126,102.498L353.908,102.497C353.785,102.452 353.652,102.417 353.509,102.393C353.274,102.355 353.026,102.337 352.764,102.337L351.11,102.337L351.11,102.497L348.662,102.497ZM325.471,102.497C325.506,102.208 325.525,101.892 325.525,101.55C325.525,101.024 325.48,100.528 325.392,100.062C325.304,99.597 325.147,99.185 324.922,98.829C324.696,98.474 324.388,98.193 323.998,97.991C323.607,97.788 323.11,97.686 322.504,97.686L320.983,97.686L320.983,102.497L318.533,102.497L318.533,97.698L316.339,97.698L316.339,95.447L322.662,95.447C325.162,95.447 326.069,96.148 326.712,96.859C327.205,97.385 327.565,98.022 327.794,98.771C328.024,99.521 328.138,100.384 328.138,101.357C328.138,101.754 328.119,102.134 328.079,102.497L325.471,102.497ZM296.369,102.497C296.451,102.183 296.494,101.853 296.494,101.513C296.494,99.351 294.743,97.601 292.583,97.601C290.422,97.601 288.671,99.351 288.671,101.513C288.671,101.853 288.714,102.183 288.796,102.498L286.549,102.497C286.497,102.177 286.47,101.848 286.47,101.513C286.47,98.137 289.207,95.399 292.583,95.399C295.959,95.399 298.695,98.137 298.695,101.513C298.695,101.848 298.668,102.177 298.616,102.498L296.369,102.497ZM264.195,102.497L264.195,100.347L261.923,100.33L261.923,97.535L264.203,97.535L264.203,95.455L257.286,95.455L257.286,97.535L259.48,97.535L259.48,102.497L264.195,102.497ZM234.234,102.497L234.234,100.351L231.848,100.334L231.848,97.537L236.251,97.537L236.251,99.428L238.504,99.428L238.504,95.456L227.206,95.456L227.206,97.537L229.402,97.537L229.402,102.497L234.234,102.497ZM199.885,102.497L199.885,97.707L197.691,97.707L197.691,95.456L208.979,95.456L208.979,99.617L206.728,99.617L206.728,97.707L202.329,97.707L202.329,102.497L199.885,102.497Z" style="fill:rgb(35,31,32);"/>
                <path id="path64" d="M409.623,102.497L409.623,105.229L407.311,105.229L407.311,103.319L405.061,103.319L405.061,107.48L416.628,107.48L416.628,103.319L414.379,103.319L414.379,105.229L412.066,105.229L412.066,102.497L409.623,102.497ZM375.6,102.497C376.072,105.405 378.593,107.625 381.633,107.625C383.031,107.625 384.318,107.156 385.348,106.367L385.348,107.012L387.599,107.02L387.597,102.859L385.348,102.859C384.758,104.356 383.32,105.424 381.633,105.424C379.813,105.424 378.284,104.182 377.847,102.498L375.6,102.497ZM351.11,102.497L351.111,105.225L352.765,105.225C353.474,105.225 353.981,105.105 354.288,104.866C354.43,104.757 354.539,104.608 354.615,104.417C354.691,104.227 354.729,104.036 354.729,103.732C354.729,103.427 354.676,103.236 354.566,103.046C354.457,102.855 354.312,102.709 354.132,102.605C354.062,102.565 353.987,102.529 353.908,102.499L357.126,102.497C357.258,102.895 357.323,103.341 357.323,103.834C357.323,104.508 357.212,105.082 356.99,105.555C356.768,106.027 356.462,106.411 356.072,106.705C355.682,106.997 355.225,107.21 354.699,107.341C354.174,107.471 353.602,107.48 352.984,107.48L346.468,107.48L346.468,105.231L348.662,105.231L348.662,102.497L351.11,102.497ZM318.533,102.497L318.533,105.393L316.34,105.393L316.34,107.473L318.538,107.473L322.535,107.48C323.508,107.48 324.346,107.336 325.05,107.046C325.755,106.757 326.337,106.343 326.795,105.807C327.254,105.269 327.593,104.627 327.81,103.878C327.936,103.447 328.026,102.987 328.079,102.497L325.472,102.497C325.44,102.766 325.394,103.01 325.335,103.235C325.208,103.711 325.024,104.109 324.782,104.427C324.298,105.062 323.55,105.381 322.538,105.381L320.983,105.381L320.983,102.497L318.533,102.497ZM286.55,102.497C287.021,105.405 289.543,107.625 292.583,107.625C295.623,107.625 298.144,105.405 298.616,102.498L296.369,102.497C295.932,104.182 294.403,105.424 292.583,105.424C290.763,105.424 289.233,104.182 288.796,102.498L286.55,102.497ZM259.48,102.497L259.48,105.228L257.287,105.228L257.287,107.479L268.573,107.479L268.573,103.318L266.323,103.318L266.323,105.228L261.924,105.228L261.924,102.597L264.195,102.597L264.195,102.497L259.48,102.497ZM229.403,102.497L229.403,105.238L227.206,105.238L227.206,107.49L238.504,107.49L238.504,103.326L236.251,103.326L236.251,105.238L231.848,105.238L231.848,102.603L234.234,102.603L234.234,102.497L229.403,102.497ZM202.329,102.497L202.329,105.401L204.609,105.401L204.609,107.48L197.691,107.48L197.691,105.401L199.885,105.401L199.885,102.497L202.329,102.497Z" style="fill:rgb(35,31,32);"/>
                <g id="text68" transform="matrix(1,0,0,-1,68.6865,651.349)">
                    <text x="0px" y="0px" style="font-family:'Helvetica';font-size:10px;">20/200</text>
                </g>
                <g id="text72" transform="matrix(1,0,0,-1,68.6865,534.019)">
                    <text x="0px" y="0px" style="font-family:'Helvetica';font-size:10px;">20/100</text>
                </g>
                <g id="text76" transform="matrix(1,0,0,-1,68.6865,441.349)">
                    <text x="0px" y="0px" style="font-family:'Helvetica';font-size:10px;">20/80</text>
                </g>
                <g id="text80" transform="matrix(1,0,0,-1,68.6865,369.679)">
                    <text x="0px" y="0px" style="font-family:'Helvetica';font-size:10px;">20/63</text>
                </g>
                <g id="text84" transform="matrix(1,0,0,-1,68.6865,304.009)">
                    <text x="0px" y="0px" style="font-family:'Helvetica';font-size:10px;">20/50</text>
                </g>
                <g id="text88" transform="matrix(1,0,0,-1,68.6865,245.679)">
                    <text x="0px" y="0px" style="font-family:'Helvetica';font-size:10px;">20/40</text>
                </g>
                <g id="text92" transform="matrix(1,0,0,-1,68.6865,191.679)">
                    <text x="0px" y="0px" style="font-family:'Helvetica';font-size:10px;">20/32</text>
                </g>
                <g id="text96" transform="matrix(1,0,0,-1,68.6865,141.679)">
                    <text x="0px" y="0px" style="font-family:'Helvetica';font-size:10px;">20/25</text>
                </g>
                <g id="text100" transform="matrix(1,0,0,-1,68.6865,98.0191)">
                    <text x="0px" y="0px" style="font-family:'Helvetica';font-size:10px;">20/20</text>
                </g>
                <g id="text104" transform="matrix(1,0,0,-1,520.746,648.347)">
                    <text x="0px" y="0px" style="font-family:'Helvetica-Bold', 'Helvetica';font-weight:700;font-size:28px;">1</text>
                </g>
                <g id="text108" transform="matrix(1,0,0,-1,517.946,523.019)">
                    <text x="0px" y="0px" style="font-family:'Helvetica-Bold', 'Helvetica';font-weight:700;font-size:28px;">2</text>
                </g>
                <g id="text112" transform="matrix(1,0,0,-1,517.974,438.347)">
                    <text x="0px" y="0px" style="font-family:'Helvetica-Bold', 'Helvetica';font-weight:700;font-size:28px;">3</text>
                </g>
                <g id="text116" transform="matrix(1,0,0,-1,517.022,363.671)">
                    <text x="0px" y="0px" style="font-family:'Helvetica-Bold', 'Helvetica';font-weight:700;font-size:28px;">4</text>
                </g>
                <g id="text120" transform="matrix(1,0,0,-1,517.862,298.011)">
                    <text x="0px" y="0px" style="font-family:'Helvetica-Bold', 'Helvetica';font-weight:700;font-size:28px;">5</text>
                </g>
                <g id="text124" transform="matrix(1,0,0,-1,517.414,239.687)">
                    <text x="0px" y="0px" style="font-family:'Helvetica-Bold', 'Helvetica';font-weight:700;font-size:28px;">6</text>
                </g>
                <g id="text128" transform="matrix(1,0,0,-1,518.002,185.675)">
                    <text x="0px" y="0px" style="font-family:'Helvetica-Bold', 'Helvetica';font-weight:700;font-size:28px;">7</text>
                </g>
                <g id="text132" transform="matrix(1,0,0,-1,517.834,136.675)">
                    <text x="0px" y="0px" style="font-family:'Helvetica-Bold', 'Helvetica';font-weight:700;font-size:28px;">8</text>
                </g>
                <g id="text136" transform="matrix(1,0,0,-1,517.386,91.0072)">
                    <text x="0px" y="0px" style="font-family:'Helvetica-Bold', 'Helvetica';font-weight:700;font-size:28px;">9</text>
                </g>
            </g>
        </g>
    </g>
</svg>
